<?xml version="1.0" encoding="UTF-8"?>
<!DOCTYPE svg PUBLIC "-//W3C//DTD SVG 1.0//EN" "http://www.w3.org/TR/2001/REC-SVG-20010904/DTD/svg10.dtd">
<!-- Creator: CorelDRAW 2019 -->
<svg xmlns="http://www.w3.org/2000/svg" xml:space="preserve" width="125mm" height="23.5mm" version="1.0" style="shape-rendering:geometricPrecision; text-rendering:geometricPrecision; image-rendering:optimizeQuality; fill-rule:evenodd; clip-rule:evenodd"
viewBox="0 0 12500 2350"
 xmlns:xlink="http://www.w3.org/1999/xlink">
 <defs>
  <style type="text/css">
   <![CDATA[
    .fil0 {fill:#7DC9E4}
    .fil1 {fill:#E6E6E6}
   ]]>
  </style>
 </defs>
 <g id="Vrstva_x0020_1">
  <metadata id="CorelCorpID_0Corel-Layer"/>
  <g id="_943137072">
   <path class="fil0" d="M7260.91 918.48c-14.75,21.6 -32.45,88.16 -35.67,128.69 4.96,1.01 157.15,80.88 384.56,-22.81 177.52,271.29 361.61,553.98 540.12,833.81 -36,36.9 -55.29,54.03 -66,121.81 -10.5,66.38 7.21,122.76 36.69,164.13 153.79,215.82 480.89,3.24 346.73,-236.59 -17.63,-31.53 -67.41,-76.97 -108.52,-91.39 -71.82,-25.17 -103.67,-15.17 -161.06,8.34 -184.68,-284.06 -343.56,-533.12 -536.17,-830.21 54.52,-38.71 79.3,-50.9 140.5,-132.44 67.16,-89.46 83.89,-181.54 94.43,-215.49 -26.07,-25.07 -86.05,-28.5 -127.7,-30.59 -10.98,128.49 -99.16,227.56 -176.29,270.13 -11.44,-20.28 -206.42,-315.83 -238.04,-366.1l-3091.77 7.61c-4.29,-1.99 -19.94,-152.83 -180.78,-150.45 -226.62,4.49 -223.4,361.99 7.23,359.05 72.63,-0.92 131.88,-47.23 157.26,-107.04 13.3,-31.36 9.13,-20.24 14.19,-41.51l3069.35 -8.42 209.75 335c-97.27,36.04 -179.66,45.5 -278.81,4.47z"/>
   <path class="fil0" d="M10342.91 1953.8c76.71,-93.79 249.34,-75.91 369.96,-76.73 55.6,-0.38 89.16,-5.61 87.52,57.02 -49.74,37.44 -374.32,25.78 -457.48,19.71zm2.91 162.41c141.85,0 387.55,14.81 514.94,-14.65 70.18,-16.22 139.43,-54.29 167.24,-98.39 46.44,-73.62 28.44,-155.32 -19.91,-200.49 -99.21,-92.68 -290.08,-91.63 -448.96,-85.72 -561.63,20.9 -555.44,373.29 -413.09,507.27 88.03,82.87 249.09,129.17 405.86,128.89 50.47,-0.1 221.76,6.4 256.18,-4.69 78.25,-25.21 82.25,-118.8 -11.62,-147.36 -97.67,-29.71 -370.02,38.9 -450.64,-84.86z"/>
   <path class="fil0" d="M8877.45 1877.27c146.7,0 306.65,-19.81 424.45,43.12 60.28,32.21 74.69,66.96 74.4,156.56 -0.19,53.39 -10.75,196.42 5.66,233.68 24.31,35.4 95.11,47.79 151.45,40.29 77.4,-10.32 87.79,-35.15 87.14,-115.88 -1.62,-202.54 43.44,-334.78 -167.46,-447.68 -164.49,-88.05 -352.76,-71.41 -536.95,-71.41 -351.06,0 -282.12,-54.08 -286.6,526.75 -0.6,77.95 20.83,99.53 96.39,108.83 53,6.52 140.93,-10.17 150.51,-58.39 12.2,-61.43 1.01,-333.01 1.01,-415.87z"/>
   <path class="fil0" d="M11866.49 1714.36c-112.51,0 -331.32,-24.77 -358.92,61.77 -13.45,87.18 57.02,98.28 132.37,97.86 72.62,-0.4 161.31,-4.46 232.19,1.51 0,99.77 0.01,199.54 0,299.3 -0.02,117.15 -12.63,177.78 125.79,178.55 149.85,0.84 121.87,-89.83 121.86,-171.02 0,-102.81 0,-205.61 0,-308.41 73.75,0 147.52,-0.2 221.26,0.02 38.41,0.11 145.93,11 150.43,-76.25 6.07,-117.88 -269.6,-83.33 -367.97,-83.33 -8.58,-92.25 -28.43,-116.25 -125.7,-116.9 -103.8,-0.68 -111.09,29.49 -131.31,116.9z"/>
   <path class="fil0" d="M7760.36 452.35l136.48 33.16c-33,-246.58 -244.21,-459.67 -514.47,-454.69 -258.12,4.75 -468.17,214.8 -490.58,468.13l126.83 0c22.61,-263.68 348.75,-454.48 606.96,-259.28 49.03,37.07 126.41,127.93 134.78,212.68z"/>
   <path class="fil0" d="M7078.15 956.36c4.35,-7.2 42.86,-113.46 47.16,-129.94 -75.67,-82.13 -81.04,-112.54 -109.61,-221.51l-121.23 0c-7.9,148.31 117.5,299.07 183.68,351.45z"/>
   <path class="fil1" d="M6669.07 1274.33c-155.77,0 -468.11,35.89 -464.37,-152.67 3.68,-185.55 349.93,-145.42 466.11,-147.56 1.16,47.59 -1.74,237.72 -1.74,300.23zm-699.12 -152.63c0,148.27 105.61,222.37 221.32,264.54 138.55,50.51 282.08,39.7 437.52,39.7 -15.33,139.35 -427.3,12.65 -474.59,123.24 -29.29,68.52 32.85,102.43 96.51,102.43l248.28 0c182.13,0 404.9,-117.87 404.9,-289.2l0 -458.85c0,-64.47 -57.74,-80.56 -120.09,-80.56l-371.98 0c-200.8,0 -441.87,101.82 -441.87,298.7z"/>
   <path class="fil1" d="M1545.45 1275.76c-46.84,-1.65 -48.54,-71.31 2.42,-71.31l416.24 0 0 69.88 -409.18 1.44 -9.48 -0.01zm384.77 -226.58c-135.32,12.86 -367.46,-19.49 -484.28,12.9 -187.06,51.89 -230.55,187.06 -137.72,283.97 91.34,95.35 276.47,79.89 429.51,79.89 82.76,0 165.53,0 248.29,0 246.65,0.01 215.23,8.04 212.03,-304.58 -0.91,-88.85 -39.96,-126.95 -81.59,-171.61 -90.49,-97.1 -218.07,-118.73 -378.96,-125 -57.16,-2.23 -188.27,-8.94 -236.7,7.49 -87.78,29.79 -75.56,120.29 12.56,136.46 60.28,11.06 174.62,0.8 245.08,5.77 58.96,4.16 151.11,30.88 171.78,74.71z"/>
   <path class="fil1" d="M4627.14 1386.9c41.73,57.69 173.27,42.72 220.41,-1.01l3.04 -410.32c115.29,-6.81 310.36,-11.89 396.2,37.18 56.11,32.08 75.5,63.04 75.04,146.32 -0.31,54.4 -10.66,188.13 6.36,227.83 37.94,46.81 184.41,53.39 216.4,0.04 15.11,-25.18 10.54,-250.54 8.15,-295.75 -7.77,-146.73 -188.44,-233.02 -335.39,-258.46 -77.68,-13.44 -497.41,-21.41 -551.82,2.34 -52.56,22.94 -47.25,39.01 -46.69,106.05 0.76,91 -10.92,408.83 8.3,445.78z"/>
   <path class="fil1" d="M3028.21 824.02c-172.05,11.69 -311.65,74.43 -381.92,180.45 -76.24,115.03 -26.05,278.78 142.01,358.99 156.55,74.73 310.84,62.48 497.57,62.48 73.39,0 209.91,17.87 248.86,-32.9 27.61,-35.99 10.66,-78.03 -14.91,-98.59 -73.5,-59.09 -488.29,35.19 -624.21,-71.74 -75.44,-59.33 -85.03,-250.15 214.7,-249.96 92.6,0.06 185.21,-0.06 277.8,0.15 45.17,0.1 88.67,4.64 124.23,-16.51 28.43,-16.93 50.96,-53.32 25.31,-93.75 -35.9,-56.6 -158.99,-39.64 -237.17,-39.64 -86.56,0 -188.9,-4.65 -272.27,1.02z"/>
   <path class="fil1" d="M7768.32 618.6c203.78,8.91 382.95,195.99 427.12,395.04 47.45,213.77 -50.09,399.59 -154.54,490.32 16.84,39.08 64.31,106.73 88.77,141.63 175.66,-117.39 282.82,-427.75 220.1,-685.4 -78.36,-321.91 -297.28,-468.57 -589.41,-507.84 -106.82,-11.23 -274.45,19.84 -347.31,75.1l85.87 139.57c34.95,-18.22 72.12,-31.73 118.53,-41.04 54.32,-10.89 94.99,-8.43 150.87,-7.38z"/>
   <path class="fil1" d="M7078.15 956.36c-136.12,698.27 568.52,1000.14 938.17,767.93 -10.89,-29.97 -67.98,-111.37 -89.2,-140.09 -165.72,86.91 -385.57,46.87 -511.28,-53.06 -247.01,-196.39 -264.91,-577.91 -23.46,-788.62 -13.96,-23.45 -82.27,-122.62 -95.68,-137.42 -173.71,142.5 -199.4,286.64 -218.55,351.26z"/>
   <path class="fil1" d="M16.45 1114.18l0 240.71c0,71.37 91.97,74.86 144.01,68.44 86.34,-10.65 89.69,-43.7 89.18,-128.6 -1,-168.48 -24.18,-259.31 123.96,-306.79 174.1,-55.79 531.21,39.16 572.15,-65.99 24.68,-63.38 -46.28,-98.95 -106.23,-98.95l-408.94 0c-181.52,0 -414.13,113.33 -414.13,291.18z"/>
   <path class="fil1" d="M3972.31 896.03l0 466.38c0,57.21 72.89,65.57 124.53,62.56 58.18,-3.41 103.44,-21.83 103.44,-85.13l0 -428.76c0,-62.65 -47.9,-84.74 -104.15,-87.22 -53.57,-2.37 -123.82,6.46 -123.82,72.17z"/>
  </g>
 </g>
</svg>
