<?xml version="1.0" encoding="utf-8"?>
<!-- Generator: Adobe Illustrator 25.2.1, SVG Export Plug-In . SVG Version: 6.00 Build 0)  -->
<svg version="1.1" id="Capa_1" xmlns="http://www.w3.org/2000/svg" xmlns:xlink="http://www.w3.org/1999/xlink" x="0px" y="0px"
	 viewBox="0 0 512 512" style="enable-background:new 0 0 512 512;" xml:space="preserve">
<style type="text/css">
	.st0{clip-path:url(#SVGID_2_);fill:#0087CC;}
</style>
<g>
	<defs>
		<rect id="SVGID_1_" x="1" y="13.3" width="511" height="486.3"/>
	</defs>
	<clipPath id="SVGID_2_">
		<use xlink:href="#SVGID_1_"  style="overflow:visible;"/>
	</clipPath>
	<path class="st0" d="M278.8,92.5c5.1-0.7,8.7-5.4,8-10.5c-0.7-5.1-5.4-8.7-10.5-8c-5.1,0.7-8.7,5.4-8,10.5
		C268.9,89.6,273.7,93.2,278.8,92.5"/>
	<path class="st0" d="M116.4,54.5c4.6,0,8.2-3.7,8.2-8.2V21.5c0-4.6-3.7-8.2-8.2-8.2c-4.6,0-8.2,3.7-8.2,8.2v24.7
		C108.1,50.8,111.8,54.5,116.4,54.5"/>
	<path class="st0" d="M116.4,70.9c-4.6,0-8.2,3.7-8.2,8.2v24.7c0,4.6,3.7,8.2,8.2,8.2c4.6,0,8.2-3.7,8.2-8.2V79.2
		C124.6,74.6,120.9,70.9,116.4,70.9"/>
	<path class="st0" d="M75.2,70.9h24.7c4.6,0,8.2-3.7,8.2-8.2c0-4.6-3.7-8.2-8.2-8.2H75.2c-4.6,0-8.2,3.7-8.2,8.2
		C66.9,67.3,70.6,70.9,75.2,70.9"/>
	<path class="st0" d="M132.9,70.9h24.7c4.6,0,8.2-3.7,8.2-8.2c0-4.6-3.7-8.2-8.2-8.2h-24.7c-4.6,0-8.2,3.7-8.2,8.2
		C124.6,67.3,128.3,70.9,132.9,70.9"/>
	<path class="st0" d="M124.6,270.4c0-19.1,15.5-34.6,34.6-34.6H362c19.1,0,34.6,15.5,34.6,34.6v21.4c0,19.1-15.5,34.6-34.6,34.6
		H159.3c-19.1,0-34.6-15.5-34.6-34.6V270.4z M159.3,342.9H362c28.2,0,51.1-22.9,51.1-51.1v-21.4c0-28.2-22.9-51.1-51.1-51.1H159.3
		c-28.2,0-51.1,22.9-51.1,51.1v21.4C108.1,320,131.1,342.9,159.3,342.9"/>
	<path class="st0" d="M322.4,260.5h10.2c7.9,0,14.6,4.6,14.6,10v21.2c0,5.4-6.7,10-14.6,10h-10.2V260.5z M314.2,318.2h18.4
		c17.1,0,31-11.9,31-26.5v-21.2c0-14.6-13.9-26.5-31-26.5h-18.4c-4.6,0-8.2,3.7-8.2,8.2V310C306,314.5,309.6,318.2,314.2,318.2"/>
	<path class="st0" d="M240,318.2c4.6,0,8.2-3.7,8.2-8.2v-24.7H273V310c0,4.6,3.7,8.2,8.2,8.2c4.6,0,8.2-3.7,8.2-8.2v-57.7
		c0-4.6-3.7-8.2-8.2-8.2c-4.6,0-8.2,3.7-8.2,8.2v16.5h-24.7v-16.5c0-4.6-3.7-8.2-8.2-8.2c-4.6,0-8.2,3.7-8.2,8.2V310
		C231.8,314.5,235.5,318.2,240,318.2"/>
	<path class="st0" d="M181.4,318.2h10.1c13.1,0,23.8-10.7,23.8-23.8v-42.1c0-4.6-3.7-8.2-8.2-8.2c-4.6,0-8.2,3.7-8.2,8.2v42.1
		c0,4-3.3,7.3-7.3,7.3h-10.1c-4,0-7.3-3.3-7.3-7.3v-42.1c0-4.6-3.7-8.2-8.2-8.2c-4.6,0-8.2,3.7-8.2,8.2v42.1
		C157.6,307.5,168.3,318.2,181.4,318.2"/>
	<path class="st0" d="M420.9,207.1c2.1-0.8,3.8-2.5,4.6-4.6l4-10.1l4,10.1c0.8,2.1,2.5,3.8,4.6,4.6l10.1,4l-10.1,4
		c-2.1,0.8-3.8,2.5-4.6,4.6l-4,10.1l-4-10.1c-0.8-2.1-2.5-3.8-4.6-4.6l-10.1-4L420.9,207.1z M385.3,218.7l26.2,10.3l10.3,26.2
		c1.2,3.1,4.3,5.2,7.7,5.2c3.4,0,6.4-2.1,7.7-5.2l10.3-26.2l26.2-10.3c3.1-1.2,5.2-4.3,5.2-7.7c0-3.4-2.1-6.4-5.2-7.7l-26.2-10.3
		l-10.3-26.2c-1.2-3.1-4.3-5.2-7.7-5.2c-3.4,0-6.4,2.1-7.7,5.2l-10.3,26.2l-26.2,10.3c-3.1,1.2-5.2,4.3-5.2,7.7
		C380.1,214.5,382.2,217.5,385.3,218.7"/>
	<path class="st0" d="M491.9,433.6H21.1c-2,0-3.6-1.6-3.6-3.6v-21.1h478V430C495.5,432,493.9,433.6,491.9,433.6 M438.9,483H434
		l-22-33h4.9L438.9,483z M79,483h-4.9l22-33h4.9L79,483z M21.1,153.4h470.8c2,0,3.6,1.6,3.6,3.6v235.4h-478V157
		C17.5,155,19.1,153.4,21.1,153.4 M491.9,136.9H21.1C10,136.9,1,145.9,1,157v273c0,11.1,9,20.1,20.1,20.1h55.2l-24.4,36.6
		c-1.7,2.5-1.8,5.8-0.4,8.5c1.4,2.7,4.2,4.4,7.3,4.4h24.7c2.8,0,5.3-1.4,6.9-3.7l30.5-45.8h271.4l30.5,45.8c1.5,2.3,4.1,3.7,6.8,3.7
		h24.7c3,0,5.8-1.7,7.3-4.4c1.4-2.7,1.3-5.9-0.4-8.5l-24.4-36.6h55.2c11.1,0,20.1-9,20.1-20.1V157C512,145.9,503,136.9,491.9,136.9z
		"/>
</g>
</svg>
