<?xml version="1.0" encoding="utf-8"?>
<!-- Generator: Adobe Illustrator 25.2.1, SVG Export Plug-In . SVG Version: 6.00 Build 0)  -->
<svg version="1.1" id="Capa_1" xmlns="http://www.w3.org/2000/svg" xmlns:xlink="http://www.w3.org/1999/xlink" x="0px" y="0px"
	 viewBox="0 0 512 512" style="enable-background:new 0 0 512 512;" xml:space="preserve">
<style type="text/css">
	.st0{clip-path:url(#SVGID_2_);fill:#0087CC;}
</style>
<g>
	<defs>
		<rect id="SVGID_1_" x="1" y="0.9" width="511" height="511"/>
	</defs>
	<clipPath id="SVGID_2_">
		<use xlink:href="#SVGID_1_"  style="overflow:visible;"/>
	</clipPath>
	<path class="st0" d="M256.5,107.4c-11.8,0-21.3,9.5-21.3,21.3v127.8c0,11.7,9.5,21.3,21.3,21.3h127.8c11.8,0,21.3-9.5,21.3-21.3
		c0-11.8-9.5-21.3-21.3-21.3H277.8V128.6C277.8,116.9,268.3,107.4,256.5,107.4"/>
	<path class="st0" d="M256.5,0.9c-67.7,0-133.3,27-182,72.2L28.2,26.9c-4.6-4.6-11.4-5.9-17.4-3.5C4.9,25.9,1,31.7,1,38.2v138.4
		c0,8.8,7.1,16,16,16h138.4c6.5,0,12.3-3.9,14.8-9.9c2.5-6,1.1-12.8-3.5-17.4l-61.9-61.9c40.8-37.3,95.3-59.9,151.7-59.9
		c117.4,0,212.9,95.5,212.9,212.9s-95.5,212.9-212.9,212.9c-56.9,0-110.4-22.2-150.4-62.4c-8.3-8.3-21.8-8.4-30.1-0.1
		c-8.3,8.3-8.4,21.8-0.1,30.1c48.1,48.3,112.3,75,180.6,75c140.9,0,255.5-114.6,255.5-255.5C512,115.5,397.4,0.9,256.5,0.9"/>
</g>
</svg>
