<?xml version="1.0" encoding="utf-8"?>
<!-- Generator: Adobe Illustrator 25.2.1, SVG Export Plug-In . SVG Version: 6.00 Build 0)  -->
<svg version="1.1" id="Capa_1" xmlns="http://www.w3.org/2000/svg" xmlns:xlink="http://www.w3.org/1999/xlink" x="0px" y="0px"
	 viewBox="0 0 512 512" style="enable-background:new 0 0 512 512;" xml:space="preserve">
<style type="text/css">
	.st0{clip-path:url(#SVGID_2_);fill:#0087CC;}
</style>
<g>
	<defs>
		<rect id="SVGID_1_" x="1" y="0.9" width="511" height="511"/>
	</defs>
	<clipPath id="SVGID_2_">
		<use xlink:href="#SVGID_1_"  style="overflow:visible;"/>
	</clipPath>
	<path class="st0" d="M396,490.6H279.6c4.4-12.4,16.2-21.3,30.1-21.3h42.6c4.3,0,8.2-2.6,9.8-6.6c1.7-4,0.7-8.6-2.3-11.6l-99.6-99.5
		c-2.3-2.2-3.5-5.3-3.5-8.4c0-3.2,1.3-6.2,3.5-8.4c4.5-4.5,12.4-4.5,16.9,0l67.6,67.6c4.1,4.2,10.9,4.2,15.1,0
		c2.1-2.1,3.1-4.8,3.1-7.5c0-2.7-1-5.4-3.1-7.5l-26.6-26.6c-2.3-2.2-3.5-5.3-3.5-8.4c0-3.2,1.2-6.2,3.5-8.4c4.5-4.5,12.4-4.5,16.9,0
		l16,16c4.1,4.1,10.9,4.1,15,0c2.1-2.1,3.1-4.8,3.1-7.5s-1-5.4-3.1-7.5L370.5,334c-2.3-2.2-3.5-5.3-3.5-8.4c0-3.2,1.2-6.2,3.5-8.4
		c4.7-4.7,12.2-4.7,16.9,0l10.6,10.6c4.2,4.1,10.9,4.1,15.1,0c2.1-2.1,3.1-4.8,3.1-7.5c0-2.7-1-5.4-3.1-7.5
		c-4.7-4.7-4.7-12.2,0-16.9c4.7-4.7,12.2-4.7,16.9,0l33,33c17.9,17.9,27.8,41.7,27.8,67C490.7,448.1,448.2,490.6,396,490.6
		 M478,313.8l-33-33c-12.9-12.9-34-12.9-47,0c-3.9,3.9-6.6,8.5-8.2,13.4c-11.7-4.1-25.1-1.4-34.4,7.9c-4.9,4.9-7.9,10.9-9.1,17.2
		c-10.2-1.5-20.8,2-28.2,9.4c-3,3-5.3,6.4-6.9,10l-19.1-19.1c-12.6-12.5-34.5-12.5-47,0c-6.3,6.3-9.8,14.6-9.8,23.5
		c0,8.9,3.5,17.2,9.8,23.5l81.4,81.4h-16.9c-29.3,0-53.2,23.9-53.2,53.2c0,5.9,4.8,10.6,10.6,10.6H396c64,0,116-52.1,116-116.1
		C512,364.9,499.9,335.7,478,313.8"/>
	<path class="st0" d="M309.7,0.9H54.2C24.9,0.9,1,24.8,1,54.1v404.5c0,29.3,23.9,53.2,53.2,53.2h170.3c5.9,0,10.7-4.8,10.7-10.6
		c0-5.9-4.8-10.6-10.7-10.6H54.2c-17.6,0-31.9-14.3-31.9-31.9V54.1c0-17.6,14.3-31.9,31.9-31.9h255.5c17.6,0,31.9,14.3,31.9,31.9
		V267c0,5.9,4.8,10.6,10.6,10.6c5.9,0,10.7-4.8,10.7-10.6V54.1C363,24.8,339.1,0.9,309.7,0.9"/>
	<path class="st0" d="M245.9,405.4H11.6c-5.9,0-10.6,4.8-10.6,10.6c0,5.9,4.8,10.7,10.6,10.7h234.2c5.9,0,10.6-4.8,10.6-10.7
		C256.5,410.2,251.7,405.4,245.9,405.4"/>
	<path class="st0" d="M203.3,448h-42.6c-5.9,0-10.7,4.8-10.7,10.6s4.8,10.7,10.7,10.7h42.6c5.9,0,10.6-4.8,10.6-10.7
		S209.2,448,203.3,448"/>
	<path class="st0" d="M54.2,43.5c5.9,0,10.6,4.8,10.6,10.6c0,5.9-4.8,10.7-10.6,10.7c-5.9,0-10.6-4.8-10.6-10.7
		C43.6,48.2,48.4,43.5,54.2,43.5"/>
</g>
</svg>
