<?xml version="1.0" encoding="utf-8"?>
<!-- Generator: Adobe Illustrator 25.2.1, SVG Export Plug-In . SVG Version: 6.00 Build 0)  -->
<svg version="1.1" id="Capa_1" xmlns="http://www.w3.org/2000/svg" xmlns:xlink="http://www.w3.org/1999/xlink" x="0px" y="0px"
	 viewBox="0 0 512 512" style="enable-background:new 0 0 512 512;" xml:space="preserve">
<style type="text/css">
	.st0{clip-path:url(#SVGID_2_);fill:#0087CC;}
</style>
<g>
	<defs>
		<rect id="SVGID_1_" x="1" y="74.5" width="511" height="364.5"/>
	</defs>
	<clipPath id="SVGID_2_">
		<use xlink:href="#SVGID_1_"  style="overflow:visible;"/>
	</clipPath>
	<path class="st0" d="M147.8,103.9c-3.3,3.3-3.3,8.7,0,12c3.3,3.3,8.7,3.3,12,0c32.5-32.5,85-32.5,117.4,0c3.3,3.3,8.7,3.3,12,0
		c3.3-3.3,3.3-8.7,0-12C250.2,64.8,186.9,64.8,147.8,103.9 M257.7,147.5c3.3-3.3,3.3-8.7,0-12c-21.6-21.6-56.7-21.6-78.3,0
		c-3.3,3.3-3.3,8.7,0,12s8.7,3.3,12,0c15-15,39.2-15,54.2,0C249,150.9,254.4,150.9,257.7,147.5z M229.8,163.4
		c10.1,10.1,2.8,27.3-11.3,27.3c-14.1,0-21.4-17.2-11.3-27.3C213.5,157.1,223.6,157.1,229.8,163.4 M160.5,231
		c-4.3,1.8-6.3,6.9-4.5,11.2l25.5,59.6c2.9,6.9,12.7,6.9,15.7,0l25.5-59.6c1.8-4.3-0.2-9.3-4.5-11.2c-4.3-1.9-9.3,0.2-11.2,4.5
		l-17.7,41.3l-17.7-41.3C169.9,231.2,164.8,229.2,160.5,231 M78.7,230.3c-4.7,0-8.5,3.8-8.5,8.5c0,4.7,3.8,8.5,8.5,8.5h17v51.1
		c0,4.7,3.8,8.5,8.5,8.5c4.7,0,8.5-3.8,8.5-8.5v-51.1h17c4.7,0,8.5-3.8,8.5-8.5c0-4.7-3.8-8.5-8.5-8.5H78.7z M283.1,177.1
		c-4.7,0-8.5,3.8-8.5,8.5v175.7c0,14.1-11.5,25.5-25.5,25.5H43.6c-14.1,0-25.5-11.5-25.5-25.5V155.8c0-14.1,11.5-25.5,25.5-25.5
		h52.2c4.7,0,8.5-3.8,8.5-8.5c0-4.7-3.8-8.5-8.5-8.5H43.6C20.1,113.2,1,132.3,1,155.8v205.5c0,23.5,19.1,42.6,42.6,42.6H249
		c23.5,0,42.6-19.1,42.6-42.6V185.6C291.6,180.9,287.8,177.1,283.1,177.1 M448.1,179.2c0-11.2-9.1-20.2-20.2-20.2
		c-11.2,0-20.2,9.1-20.2,20.2s9.1,20.2,20.2,20.2C439.1,199.5,448.1,190.4,448.1,179.2 M465.2,179.2c0,20.5-16.7,37.3-37.3,37.3
		c-20.5,0-37.3-16.7-37.3-37.3s16.7-37.3,37.3-37.3C448.4,142,465.2,158.7,465.2,179.2 M451.3,361.9c-6.3,2.6-7.1,11.3-1.5,14.9
		c6.4,4.3,14.6-1.6,13.1-8.7C461.8,362.9,456.2,359.9,451.3,361.9z M392.8,369.8c0,6.9,7.7,10.8,13.3,7.1c4.4-2.9,5.1-9.3,1.3-13.1
		C402,358.5,392.8,362.2,392.8,369.8 M452.8,313.6c-4.7,0.9-7.6,5.6-6.7,10c0.9,4.7,5.6,7.6,10,6.7c4-0.8,6.9-4.3,6.9-8.3
		C463,316.6,458.1,312.5,452.8,313.6 M399.6,313.6c-7.5,1.5-9.3,11.3-3.1,15.4c5.6,3.8,13.2-0.3,13.2-7.1
		C409.8,316.6,404.9,312.5,399.6,313.6 M452.8,265.7c-4.7,0.9-7.6,5.6-6.7,10c0.9,4.7,5.6,7.6,10,6.7c4-0.8,6.9-4.3,6.9-8.4
		C463,268.7,458.1,264.6,452.8,265.7 M399.6,265.7c-4.8,0.9-7.6,5.7-6.7,10c0.9,4.8,5.7,7.6,10,6.7c4-0.8,6.8-4.3,6.8-8.4
		C409.8,268.6,404.8,264.6,399.6,265.7 M512,126v270.4c0,4.7-3.8,8.5-8.5,8.5c-4.7,0-8.5-3.8-8.5-8.5V126
		c0-14.1-11.5-25.5-25.6-25.5h-83c-14.1,0-25.6,11.5-25.6,25.5v270.4c0,14.1,11.5,25.6,25.6,25.6h83c4.7,0,8.5,3.8,8.5,8.5
		c0,4.7-3.8,8.5-8.5,8.5h-83c-23.5,0-42.6-19.1-42.6-42.6V126c0-23.5,19.1-42.6,42.6-42.6h83C492.9,83.4,512,102.5,512,126"/>
</g>
</svg>
