<?xml version="1.0" encoding="utf-8"?>
<!-- Generator: Adobe Illustrator 25.2.1, SVG Export Plug-In . SVG Version: 6.00 Build 0)  -->
<svg version="1.1" id="Capa_1" xmlns="http://www.w3.org/2000/svg" xmlns:xlink="http://www.w3.org/1999/xlink" x="0px" y="0px"
	 viewBox="0 0 512 512" style="enable-background:new 0 0 512 512;" xml:space="preserve">
<style type="text/css">
	.st0{clip-path:url(#SVGID_2_);fill:#0087CC;}
</style>
<g>
	<defs>
		<rect id="SVGID_1_" x="0.5" y="0.5" width="511" height="511"/>
	</defs>
	<clipPath id="SVGID_2_">
		<use xlink:href="#SVGID_1_"  style="overflow:visible;"/>
	</clipPath>
	<path class="st0" d="M481.6,466.6c0,8.3-6.7,15-15,15H45.4c-8.2,0-15-6.7-15-15V45.4c0-8.2,6.7-15,15-15h421.2c8.3,0,15,6.7,15,15
		V466.6z M466.6,0.5H45.4C20.6,0.5,0.5,20.6,0.5,45.4v421.2c0,24.8,20.1,44.9,44.9,44.9h421.2c24.8,0,44.9-20.2,44.9-44.9V45.4
		C511.5,20.6,491.3,0.5,466.6,0.5"/>
	<path class="st0" d="M435.6,61.4h-59.9c-8.3,0-15,6.7-15,15c0,8.3,6.7,15,15,15h44.9v44.9c0,8.3,6.7,15,15,15s15-6.7,15-15V76.4
		C450.6,68.1,443.9,61.4,435.6,61.4"/>
	<path class="st0" d="M435.6,360.8c-8.3,0-15,6.7-15,15v44.9h-44.9c-8.3,0-15,6.7-15,15c0,8.3,6.7,15,15,15h59.9c8.3,0,15-6.7,15-15
		v-59.9C450.6,367.5,443.9,360.8,435.6,360.8"/>
	<path class="st0" d="M76.3,151.2c8.3,0,15-6.7,15-15V91.3h44.9c8.3,0,15-6.7,15-15c0-8.3-6.7-15-15-15H76.3c-8.3,0-15,6.7-15,15
		v59.9C61.4,144.5,68.1,151.2,76.3,151.2"/>
	<path class="st0" d="M136.2,420.7H91.3v-44.9c0-8.3-6.7-15-15-15c-8.3,0-15,6.7-15,15v59.9c0,8.3,6.7,15,15,15h59.9
		c8.3,0,15-6.7,15-15C151.2,427.4,144.5,420.7,136.2,420.7"/>
	<path class="st0" d="M272.6,211.1c8.3,0,15-6.7,15-15c0-8.3-6.7-15-15-15h-50.5c-8.3,0-15,6.7-15,15v119.8c0,8.3,6.7,15,15,15h50.5
		c8.3,0,15-6.7,15-15c0-8.3-6.7-15-15-15h-35.5V271h31.8c8.3,0,15-6.7,15-15c0-8.3-6.7-15-15-15h-31.8v-29.9H272.6z"/>
	<path class="st0" d="M126.7,243.4c-3.9,0-10.5,0-16.7,0.1c0-6.1-0.1-12.5-0.1-16.2c0-3.2,0-9.8,0-16.1h16.8
		c9.7,0,17.9,7.4,17.9,16.1C144.6,236,136.4,243.4,126.7,243.4 M174.6,227.2c0-25.4-21.5-46.1-47.9-46.1H94.9h0c0,0,0,0,0,0
		c-8.3,0-15,6.7-15,15v119.8c0,8.3,6.7,15,15,15c8.3,0,15-6.7,15-15V282l38.5,43.8c3,3.4,7.1,5.1,11.2,5.1c3.5,0,7-1.2,9.9-3.7
		c6.2-5.5,6.8-14.9,1.3-21.1l-30.4-34.6C160.1,265.7,174.6,248.1,174.6,227.2"/>
	<path class="st0" d="M430.2,315.2c2.3-2,4.4-4.2,6.4-6.6c5.3-6.3,4.5-15.8-1.8-21.1c-6.3-5.3-15.8-4.5-21.1,1.8
		c-1,1.3-2.2,2.4-3.3,3.5c-6,5.4-13.7,8.1-22.9,8.1c-24.8,0-44.9-20.1-44.9-44.9c0-24.8,20.1-44.9,44.9-44.9c9,0,17.7,2.7,25.1,7.7
		c6.9,4.6,16.2,2.8,20.8-4c4.6-6.9,2.8-16.2-4-20.8c-12.4-8.4-26.9-12.8-41.9-12.8c-41.3,0-74.9,33.6-74.9,74.9s33.6,74.9,74.9,74.9
		C403.9,330.9,418.7,325.4,430.2,315.2"/>
</g>
</svg>
